<svg id="Layer_1" data-name="Layer 1" xmlns="http://www.w3.org/2000/svg" viewBox="0 0 190.6 245.8"><defs><style>.cls-1{fill:#0a0a09;}</style></defs><title>logo_mk1</title><g id="F22GPD.tif"><path class="cls-1" d="M295.32,444.77c7-4.56,10.95-11.32,13.33-19.12a44.07,44.07,0,0,0,1.66-15.13,26.12,26.12,0,0,1,4.85,10.11c2.47,9.65,1.2,19.1-1.75,28.43-3,9.64-7.84,18.41-13.44,26.78-5.82,8.71-10.15,18.06-11.49,28.57A34.11,34.11,0,0,0,289.3,519c.09,1.48-.61.94-1.27.5-6-4.07-10.61-9.23-12.4-16.5a25,25,0,0,1-.39-9.48,5.14,5.14,0,0,0-2,2c-10,11.06-10.81,23.48-5.45,36.83-13.08-4.16-35.63-19.11-37.23-46.23a47.47,47.47,0,0,0-5.26,10A81,81,0,0,0,222,506.5c-16.42-23.06-14.49-51.17,5.1-67.57a27.88,27.88,0,0,0,3.56,12.87c1.62-3.64,3.49-6.91,7.09-8.71.13-.07.34-.23.33-.32-.25-1.88-.85-3.77-.71-5.61.19-2.38-1-2.93-2.89-3.69-4.78-2-8.11-5.37-9.15-10.66a2.78,2.78,0,0,1,1.67-3.55,30.83,30.83,0,0,0,10.2-8.24,15.62,15.62,0,0,0,2.84-5.23,66,66,0,0,1-9.71,1c-22.2.35-28.48-19.27-23.17-33.18a41,41,0,0,1,4.16-8.09,74.62,74.62,0,0,1,16.49-18.34c-.34,1-2.44,7.66,1.27,13.61a16.67,16.67,0,0,0,6.37,5.71,11.61,11.61,0,0,0,9.1,1.25c7.25-2,13.66-5.93,20.46-9,1.43-.64.12-1.21-.2-1.62a27.68,27.68,0,0,1-6-20c.87-9.13,4.9-16.94,10.62-24.2a39.47,39.47,0,0,0,15.12,13.88,71.67,71.67,0,0,0,19,7c9.33,2.07,18.48,4.65,27.11,8.84a53.21,53.21,0,0,1,11.39,7.3c0-6-.87-11.51-1.56-17.09,1.24-.15,2,.6,2.82,1,13.32,7.12,24,16.88,30.41,30.79A64.29,64.29,0,0,1,379.62,399a4.55,4.55,0,0,0,1.17,3.81c8.13,9.56,13.75,20.29,15,33a44.84,44.84,0,0,1-3.59,22.51,68.31,68.31,0,0,0-5.82-20c-7.46-15.37-19.57-26.18-34.13-34.53a83.09,83.09,0,0,0-13.94-6.53,4,4,0,0,1-2.56-2.39c-6.84-15.41-19.14-24.16-35-28.55-.35-.1-.87.12-.95-.49a50.08,50.08,0,0,1,37.7,15.7,3.22,3.22,0,0,0,2,1.23c7.76.92,15,3.6,22,6.95,1.54.74,1.95.49,2-1.19a50.44,50.44,0,0,0-8.17-30c-.25-.37-.37-1-1.07-.71a28.81,28.81,0,0,1-5.86,13.88c-.27-.38-.47-.63-.64-.91-8.88-14.59-22-23.15-38.66-25.8-12.44-2-24.44-4.59-34.7-12.74a14.72,14.72,0,0,0-.53,7.71,14.1,14.1,0,0,0,14.89,12,35.65,35.65,0,0,1,12.77,1.65,14.55,14.55,0,0,1,4.84,2.23,34.49,34.49,0,0,0-11.38.27c-12.17,1.76-23,6.85-33,13.83a58.81,58.81,0,0,1-14,7.55c-5.91,2.1-12.72,4.51-19.07,1.43a17.93,17.93,0,0,1-8.13-8.86c-5.47,9.57-5,19.8.17,24.52,4.27,3.91,11.19,3.51,13.17,3.4,4.27-.24,7.29-1.6,12.08-3.9,9-4.33,14.65-7.25,18.84-9.53,7.51-4.08,15.08-8.05,23.65-9.47a32.11,32.11,0,0,1,19.89,2.65,12.56,12.56,0,0,1,1.31.69c.1.06.1.29.23.72-1.07-.15-2-.3-3-.4-11-1.2-21.07,1.64-30.33,7.46-7.58,4.77-14.94,9.88-22.79,14.22a4.31,4.31,0,0,0-1.67,1.77c-4.29,7.37-9.68,13.69-17.26,17.85-1.25.68-1.07,1.19-.21,2,2.21,2,4.88,2.34,7.68,2a35.33,35.33,0,0,0,15.75-6.49c-2,8-6.22,13.63-13.56,16.75-1.11.11-2.14.27-2.11,1.79,0,1.9-.15,3.85,1.18,5.44.15.18.63.13,1,.11,5.48-.22,10.17,1.94,14.65,4.79a16.54,16.54,0,0,0,7,2.38c4.62.6,9-.39,13.69-1.62a15.24,15.24,0,0,1-5.15,5.33c-.74.44-1.37.69-1.11,1.85a20,20,0,0,1-1.44,13.13,18.21,18.21,0,0,0,19.08-16.85c.18-2.29.7-3.85,2.67-4.9Zm-27.54,9.5a29.62,29.62,0,0,1-9.35-2.34,52.55,52.55,0,0,0-8.89-3.09c-5.87-1.18-12.66,4.64-12.24,10.63.56,7.93,4.39,13.56,12,16.35a8.06,8.06,0,0,0,4,.59c3.93-.59,7.13-5.88,8.3-12.91a23.22,23.22,0,0,0,1.79,5.83c.2.45.42.88.64,1.29C268.14,465.78,269.09,460.3,267.78,454.27Z" transform="translate(-205.4 -312.96)"/><path class="cls-1" d="M270.7,534.47c10.24,4.1,20.91,5.15,31.83,4.46,2,.45,2.27-.53,1.92-2.2a59.33,59.33,0,0,1-1.07-10.64C303,512,306.7,499.16,315.61,488a41.91,41.91,0,0,1,9.62-9.05c3.78,13,12.31,21.64,23.83,28.32-.75-4.21-1.48-8-1-11.8,1.21-8.77,3.14-17.46,4.1-26.26a36.62,36.62,0,0,0-5.16-22.8A49,49,0,0,1,340.69,460c-3.41,4.82-7.69,8.75-10.52,9.55a43.46,43.46,0,0,0,5.38-12.27c3.27-12.05,2.77-24.18.62-36.31-.46-2.61-.33-5.45-2.11-7.72,0-.73-.46-2.08,1.1-1.12,15,9.12,28,20.06,33.73,37.45,3.3,10,3.21,20.26,2.32,30.59-1,11.74-3.09,23.41-2.36,35.27A55.41,55.41,0,0,0,373.67,535c-19-3.06-33.66-12.62-45.34-27.15-5.17,10.39-4.78,30.58,11.29,50.48-2.39.13-4.56.31-6.73.36-17.33.44-33.91-2.35-48.89-11.7a49.23,49.23,0,0,1-13.7-12.18Z" transform="translate(-205.4 -312.96)"/><path class="cls-1" d="M297.63,397.47a36.51,36.51,0,0,0-4.2.48c-1.82.44-2.87,1.29-2.83,3.6.11,5.32-3.6,8.35-9.42,8a17.24,17.24,0,0,1-4.66-.72,10.18,10.18,0,0,0-8.94.83,45.69,45.69,0,0,1-5,2.09l2.85-3.53c1.55-1.89,3.36-3.55,2.7-6.5a5,5,0,0,1,1.48-4.06,1.09,1.09,0,0,0,.51.18c1.07.11,1.91-1.41,2.14-1.29s-1.69,3.09-.79,4.51c.58.92,2.17.89,3.09.86A13.16,13.16,0,0,0,281,399.5c1.83-1.14,3.62-2.36,5.54-3.31C290.27,394.34,293.83,395.1,297.63,397.47Z" transform="translate(-205.4 -312.96)"/><path class="cls-1" d="M275.93,537.75l-.36-.62c.34-.19.63-.21.76.25Z" transform="translate(-205.4 -312.96)"/></g><path class="cls-1" d="M536.19,374.64" transform="translate(-205.4 -312.96)"/></svg>